<svg
  xmlns="http://www.w3.org/2000/svg"
  viewBox="0 0 64 64"
  role="img"
  aria-label="Mister Mölkky"
>
  <defs>
    <linearGradient id="mm-bg" x1="0" y1="0" x2="1" y2="1">
      <stop offset="0%" stop-color="#4a7c2a" />
      <stop offset="100%" stop-color="#6da943" />
    </linearGradient>
    <linearGradient id="mm-pin" x1="0" y1="0" x2="0" y2="1">
      <stop offset="0%" stop-color="#fef3c7" />
      <stop offset="60%" stop-color="#e8c97a" />
      <stop offset="100%" stop-color="#b88944" />
    </linearGradient>
    <linearGradient id="mm-mol" x1="0" y1="0" x2="0" y2="1">
      <stop offset="0%" stop-color="#fde68a" />
      <stop offset="100%" stop-color="#b45309" />
    </linearGradient>
  </defs>

  <rect width="64" height="64" rx="14" fill="url(#mm-bg)" />

  <g fill="url(#mm-pin)" stroke="#5c3a14" stroke-width="0.7" stroke-linejoin="round">
    <path d="M 22 28 L 24 22 L 28 22 L 30 28 L 30 48 L 22 48 Z" />
    <path d="M 34 28 L 36 22 L 40 22 L 42 28 L 42 48 L 34 48 Z" />
    <path d="M 28 16 L 30 10 L 34 10 L 36 16 L 36 26 L 28 26 Z" />
  </g>

  <g fill="#7a3d12" font-family="system-ui,sans-serif" font-size="5" font-weight="900" text-anchor="middle">
    <text x="26" y="40">7</text>
    <text x="38" y="40">9</text>
    <text x="32" y="20">12</text>
  </g>

  <g transform="rotate(-18 50 50)">
    <rect x="48" y="38" width="4" height="18" rx="1.6" fill="url(#mm-mol)" stroke="#5c3a14" stroke-width="0.6" />
  </g>
</svg>
